# Blender 4.0.2
# www.blender.org
mtllib TwoZoneHead_Outer_AsMesh.mtl
o Cylinder
v 0.000000 0.173750 -6.109509
v 0.000000 0.173750 -3.295103
v 0.000000 -0.173750 -6.109509
v 0.000000 -0.173750 -3.295103
v 1.191906 0.173750 -5.992116
v 0.642843 0.173750 -3.231788
v 1.191906 -0.173750 -5.992116
v 0.642843 -0.173750 -3.231788
v 2.338008 0.173750 -5.644450
v 1.260981 0.173750 -3.044278
v 2.338008 -0.173750 -5.644450
v 1.260981 -0.173750 -3.044278
v 3.394261 0.173750 -5.079871
v 1.830661 0.173750 -2.739778
v 3.394261 -0.173750 -5.079871
v 1.830661 -0.173750 -2.739778
v 4.320075 0.173750 -4.320075
v 2.329989 0.173750 -2.329989
v 4.320075 -0.173750 -4.320075
v 2.329989 -0.173750 -2.329989
v 5.079871 0.173750 -3.394261
v 2.739778 0.173750 -1.830661
v 2.739778 -0.173750 -1.830661
v 5.079871 -0.173750 -3.394261
v 5.644450 0.173750 -2.338008
v 3.044278 0.173750 -1.260981
v 5.644450 -0.173750 -2.338008
v 3.044278 -0.173750 -1.260981
v 5.992116 0.173750 -1.191906
v 3.231788 0.173750 -0.642843
v 5.992116 -0.173750 -1.191906
v 3.231788 -0.173750 -0.642843
v 3.295103 0.173750 0.000000
v 6.109509 0.173750 0.000000
v 3.295103 -0.173750 0.000000
v 6.109509 -0.173750 0.000000
v 3.231788 0.173750 0.642843
v 5.992116 0.173750 1.191906
v 3.231788 -0.173750 0.642843
v 5.992116 -0.173750 1.191906
v 3.044278 0.173750 1.260981
v 5.644450 0.173750 2.338008
v 3.044278 -0.173750 1.260981
v 5.644450 -0.173750 2.338008
v 2.739778 0.173750 1.830661
v 5.079871 0.173750 3.394261
v 2.739778 -0.173750 1.830661
v 5.079871 -0.173750 3.394261
v 4.320075 0.173750 4.320075
v 2.329989 0.173750 2.329989
v 4.320075 -0.173750 4.320075
v 2.329989 -0.173750 2.329989
v 3.394261 0.173750 5.079871
v 1.830661 0.173750 2.739778
v 3.394261 -0.173750 5.079871
v 1.830661 -0.173750 2.739778
v 1.260981 0.173750 3.044278
v 2.338008 0.173750 5.644450
v 1.260981 -0.173750 3.044278
v 2.338008 -0.173750 5.644450
v 0.642843 0.173750 3.231788
v 1.191906 0.173750 5.992116
v 0.642843 -0.173750 3.231788
v 1.191906 -0.173750 5.992116
v 0.000000 0.173750 3.295103
v 0.000000 0.173750 6.109509
v 0.000000 -0.173750 3.295103
v 0.000000 -0.173750 6.109509
v -0.642843 0.173750 3.231788
v -1.191906 0.173750 5.992116
v -1.191906 -0.173750 5.992116
v -0.642843 -0.173750 3.231788
v -1.260981 0.173750 3.044278
v -2.338008 0.173750 5.644450
v -1.260981 -0.173750 3.044278
v -2.338008 -0.173750 5.644450
v -1.830661 0.173750 2.739778
v -3.394261 0.173750 5.079871
v -1.830661 -0.173750 2.739778
v -3.394261 -0.173750 5.079871
v -2.329989 0.173750 2.329989
v -4.320075 0.173750 4.320075
v -2.329989 -0.173750 2.329989
v -4.320075 -0.173750 4.320075
v -5.079871 0.173750 3.394261
v -2.739778 0.173750 1.830661
v -5.079871 -0.173750 3.394261
v -2.739778 -0.173750 1.830661
v -3.044278 0.173750 1.260981
v -5.644450 0.173750 2.338008
v -3.044278 -0.173750 1.260981
v -5.644450 -0.173750 2.338008
v -3.231788 0.173750 0.642843
v -5.992116 0.173750 1.191906
v -3.231788 -0.173750 0.642843
v -5.992116 -0.173750 1.191906
v -3.295103 0.173750 0.000000
v -6.109509 0.173750 0.000000
v -3.295103 -0.173750 0.000000
v -6.109509 -0.173750 0.000000
v -3.231788 0.173750 -0.642843
v -5.992116 0.173750 -1.191906
v -3.231788 -0.173750 -0.642843
v -5.992116 -0.173750 -1.191906
v -3.044278 0.173750 -1.260981
v -5.644450 0.173750 -2.338008
v -3.044278 -0.173750 -1.260981
v -5.644450 -0.173750 -2.338008
v -5.079871 0.173750 -3.394261
v -2.739778 0.173750 -1.830661
v -5.079871 -0.173750 -3.394261
v -2.739778 -0.173750 -1.830661
v -4.320075 0.173750 -4.320075
v -2.329989 0.173750 -2.329989
v -4.320075 -0.173750 -4.320075
v -2.329989 -0.173750 -2.329989
v -3.394261 0.173750 -5.079871
v -1.830661 0.173750 -2.739778
v -3.394261 -0.173750 -5.079871
v -1.830661 -0.173750 -2.739778
v -2.338008 0.173750 -5.644450
v -1.260981 0.173750 -3.044278
v -2.338008 -0.173750 -5.644450
v -1.260981 -0.173750 -3.044278
v -1.191906 0.173750 -5.992116
v -0.642843 0.173750 -3.231788
v -0.642843 -0.173750 -3.231788
v -1.191906 -0.173750 -5.992116
vn 0.0980 -0.0000 -0.9952
vn 0.2903 -0.0000 -0.9569
vn 0.4714 -0.0000 -0.8819
vn 0.6344 -0.0000 -0.7730
vn 0.7730 -0.0000 -0.6344
vn 0.8819 -0.0000 -0.4714
vn 0.9569 -0.0000 -0.2903
vn 0.9952 -0.0000 -0.0980
vn 0.9952 -0.0000 0.0980
vn 0.9569 -0.0000 0.2903
vn 0.8819 -0.0000 0.4714
vn 0.7730 -0.0000 0.6344
vn 0.6344 -0.0000 0.7730
vn 0.4714 -0.0000 0.8819
vn 0.2903 -0.0000 0.9569
vn 0.0980 -0.0000 0.9952
vn -0.0980 -0.0000 0.9952
vn -0.2903 -0.0000 0.9569
vn -0.4714 -0.0000 0.8819
vn -0.6344 -0.0000 0.7730
vn -0.7730 -0.0000 0.6344
vn -0.8819 -0.0000 0.4714
vn -0.9569 -0.0000 0.2903
vn -0.9952 -0.0000 0.0980
vn -0.9952 -0.0000 -0.0980
vn -0.9569 -0.0000 -0.2903
vn -0.8819 -0.0000 -0.4714
vn -0.7730 -0.0000 -0.6344
vn -0.6344 -0.0000 -0.7730
vn -0.4714 -0.0000 -0.8819
vn -0.0000 -1.0000 -0.0000
vn -0.2903 -0.0000 -0.9569
vn -0.0980 -0.0000 -0.9952
vn -0.0000 1.0000 -0.0000
vt 1.000000 0.500000
vt 1.000000 1.000000
vt 0.968750 1.000000
vt 0.968750 0.500000
vt 0.937500 1.000000
vt 0.937500 0.500000
vt 0.906250 1.000000
vt 0.906250 0.500000
vt 0.875000 1.000000
vt 0.875000 0.500000
vt 0.843750 1.000000
vt 0.843750 0.500000
vt 0.812500 1.000000
vt 0.812500 0.500000
vt 0.781250 1.000000
vt 0.781250 0.500000
vt 0.750000 1.000000
vt 0.750000 0.500000
vt 0.718750 1.000000
vt 0.718750 0.500000
vt 0.687500 1.000000
vt 0.687500 0.500000
vt 0.656250 1.000000
vt 0.656250 0.500000
vt 0.625000 1.000000
vt 0.625000 0.500000
vt 0.593750 1.000000
vt 0.593750 0.500000
vt 0.562500 1.000000
vt 0.562500 0.500000
vt 0.531250 1.000000
vt 0.531250 0.500000
vt 0.500000 1.000000
vt 0.500000 0.500000
vt 0.468750 1.000000
vt 0.468750 0.500000
vt 0.437500 1.000000
vt 0.437500 0.500000
vt 0.406250 1.000000
vt 0.406250 0.500000
vt 0.375000 1.000000
vt 0.375000 0.500000
vt 0.343750 1.000000
vt 0.343750 0.500000
vt 0.312500 1.000000
vt 0.312500 0.500000
vt 0.281250 1.000000
vt 0.281250 0.500000
vt 0.250000 1.000000
vt 0.250000 0.500000
vt 0.218750 1.000000
vt 0.218750 0.500000
vt 0.187500 1.000000
vt 0.187500 0.500000
vt 0.156250 1.000000
vt 0.156250 0.500000
vt 0.125000 1.000000
vt 0.125000 0.500000
vt 0.093750 1.000000
vt 0.093750 0.500000
vt 0.062500 1.000000
vt 0.062500 0.500000
vt 0.158156 0.471731
vt 0.116663 0.449553
vt 0.080294 0.419706
vt 0.050447 0.383337
vt 0.028269 0.341844
vt 0.014612 0.296822
vt 0.010000 0.250000
vt 0.014612 0.203178
vt 0.028269 0.158156
vt 0.050447 0.116663
vt 0.080294 0.080294
vt 0.116663 0.050447
vt 0.158156 0.028269
vt 0.200465 0.130412
vt 0.178086 0.142373
vt 0.158471 0.158471
vt 0.142373 0.178086
vt 0.130412 0.200465
vt 0.123046 0.224747
vt 0.120558 0.250000
vt 0.123046 0.275253
vt 0.130412 0.299535
vt 0.142373 0.321914
vt 0.158471 0.341529
vt 0.178086 0.357627
vt 0.200465 0.369588
vt 0.224747 0.376954
vt 0.250000 0.379442
vt 0.275253 0.376954
vt 0.299535 0.369589
vt 0.321914 0.357627
vt 0.341529 0.341529
vt 0.357627 0.321914
vt 0.369588 0.299535
vt 0.376954 0.275253
vt 0.379442 0.250000
vt 0.376954 0.224747
vt 0.369588 0.200465
vt 0.471731 0.158156
vt 0.485388 0.203178
vt 0.490000 0.250000
vt 0.485388 0.296822
vt 0.471731 0.341844
vt 0.449553 0.383337
vt 0.419706 0.419706
vt 0.383337 0.449553
vt 0.341844 0.471731
vt 0.296822 0.485388
vt 0.250000 0.490000
vt 0.203178 0.485388
vt 0.341844 0.028269
vt 0.383337 0.050447
vt 0.419706 0.080294
vt 0.449553 0.116663
vt 0.357627 0.178086
vt 0.341529 0.158471
vt 0.321914 0.142373
vt 0.299535 0.130412
vt 0.275253 0.123046
vt 0.250000 0.120558
vt 0.224747 0.123046
vt 0.203178 0.014612
vt 0.250000 0.010000
vt 0.296822 0.014612
vt 0.031250 1.000000
vt 0.031250 0.500000
vt 0.000000 1.000000
vt 0.000000 0.500000
vt 0.703178 0.485388
vt 0.750000 0.490000
vt 0.796822 0.485388
vt 0.841844 0.471731
vt 0.883337 0.449553
vt 0.919706 0.419706
vt 0.949553 0.383337
vt 0.971731 0.341844
vt 0.985388 0.296822
vt 0.990000 0.250000
vt 0.985388 0.203178
vt 0.971731 0.158156
vt 0.949553 0.116663
vt 0.919706 0.080294
vt 0.883337 0.050447
vt 0.841844 0.028269
vt 0.796822 0.014612
vt 0.750000 0.010000
vt 0.703178 0.014612
vt 0.658156 0.028269
vt 0.616663 0.050447
vt 0.580294 0.080294
vt 0.550447 0.116663
vt 0.528269 0.158156
vt 0.514612 0.203178
vt 0.623046 0.224747
vt 0.630412 0.200465
vt 0.642373 0.178086
vt 0.658471 0.158471
vt 0.678086 0.142373
vt 0.700465 0.130412
vt 0.724747 0.123046
vt 0.750000 0.120558
vt 0.775253 0.123046
vt 0.799535 0.130412
vt 0.821914 0.142373
vt 0.841529 0.158471
vt 0.857627 0.178086
vt 0.869588 0.200465
vt 0.876954 0.224747
vt 0.879442 0.250000
vt 0.876955 0.275253
vt 0.869588 0.299535
vt 0.857627 0.321914
vt 0.841529 0.341529
vt 0.821914 0.357627
vt 0.799535 0.369588
vt 0.775253 0.376954
vt 0.750000 0.379442
vt 0.724747 0.376954
vt 0.510000 0.250000
vt 0.514612 0.296822
vt 0.528269 0.341844
vt 0.550447 0.383337
vt 0.580294 0.419706
vt 0.616663 0.449553
vt 0.658156 0.471731
vt 0.700465 0.369588
vt 0.678086 0.357627
vt 0.658471 0.341529
vt 0.642373 0.321914
vt 0.630412 0.299535
vt 0.623046 0.275253
vt 0.620558 0.250000
s 0
f 1/1/1 5/4/1 7/3/1 3/2/1
f 5/4/2 9/6/2 11/5/2 7/3/2
f 9/6/3 13/8/3 15/7/3 11/5/3
f 13/8/4 17/10/4 19/9/4 15/7/4
f 17/10/5 21/12/5 24/11/5 19/9/5
f 21/12/6 25/14/6 27/13/6 24/11/6
f 25/14/7 29/16/7 31/15/7 27/13/7
f 29/16/8 34/18/8 36/17/8 31/15/8
f 34/18/9 38/20/9 40/19/9 36/17/9
f 38/20/10 42/22/10 44/21/10 40/19/10
f 42/22/11 46/24/11 48/23/11 44/21/11
f 46/24/12 49/26/12 51/25/12 48/23/12
f 49/26/13 53/28/13 55/27/13 51/25/13
f 53/28/14 58/30/14 60/29/14 55/27/14
f 58/30/15 62/32/15 64/31/15 60/29/15
f 62/32/16 66/34/16 68/33/16 64/31/16
f 66/34/17 70/36/17 71/35/17 68/33/17
f 70/36/18 74/38/18 76/37/18 71/35/18
f 74/38/19 78/40/19 80/39/19 76/37/19
f 78/40/20 82/42/20 84/41/20 80/39/20
f 82/42/21 85/44/21 87/43/21 84/41/21
f 85/44/22 90/46/22 92/45/22 87/43/22
f 90/46/23 94/48/23 96/47/23 92/45/23
f 94/48/24 98/50/24 100/49/24 96/47/24
f 98/50/25 102/52/25 104/51/25 100/49/25
f 102/52/26 106/54/26 108/53/26 104/51/26
f 106/54/27 109/56/27 111/55/27 108/53/27
f 109/56/28 113/58/28 115/57/28 111/55/28
f 113/58/29 117/60/29 119/59/29 115/57/29
f 117/60/30 121/62/30 123/61/30 119/59/30
f 123/63/31 128/112/31 3/111/31 7/110/31 11/109/31 15/108/31 19/107/31 24/106/31 27/105/31 31/104/31 36/103/31 40/102/31 44/101/31 43/100/31 39/99/31 35/98/31 32/97/31 28/96/31 23/95/31 20/94/31 16/93/31 12/92/31 8/91/31 4/90/31 127/89/31 124/88/31 120/87/31 116/86/31 112/85/31 107/84/31 103/83/31 99/82/31 95/81/31 91/80/31 88/79/31 83/78/31 79/77/31 75/76/31 76/75/31 80/74/31 84/73/31 87/72/31 92/71/31 96/70/31 100/69/31 104/68/31 108/67/31 111/66/31 115/65/31 119/64/31
f 60/113/31 64/126/31 68/125/31 71/124/31 76/75/31 75/76/31 72/123/31 67/122/31 63/121/31 59/120/31 56/119/31 52/118/31 47/117/31 43/100/31 44/101/31 48/116/31 51/115/31 55/114/31
f 121/62/32 125/128/32 128/127/32 123/61/32
f 125/128/33 1/130/33 3/129/33 128/127/33
f 125/131/34 126/180/34 2/179/34 6/178/34 10/177/34 14/176/34 18/175/34 22/174/34 26/173/34 30/172/34 33/171/34 37/170/34 41/169/34 45/168/34 50/167/34 54/166/34 57/165/34 61/164/34 65/163/34 69/162/34 73/161/34 77/160/34 81/159/34 86/158/34 89/157/34 93/156/34 94/155/34 90/154/34 85/153/34 82/152/34 78/151/34 74/150/34 70/149/34 66/148/34 62/147/34 58/146/34 53/145/34 49/144/34 46/143/34 42/142/34 38/141/34 34/140/34 29/139/34 25/138/34 21/137/34 17/136/34 13/135/34 9/134/34 5/133/34 1/132/34
f 93/156/34 97/194/34 101/193/34 105/192/34 110/191/34 114/190/34 118/189/34 122/188/34 126/180/34 125/131/34 121/187/34 117/186/34 113/185/34 109/184/34 106/183/34 102/182/34 98/181/34 94/155/34
f 4/2/17 8/3/17 6/4/17 2/1/17
f 8/3/18 12/5/18 10/6/18 6/4/18
f 12/5/19 16/7/19 14/8/19 10/6/19
f 16/7/20 20/9/20 18/10/20 14/8/20
f 23/11/21 22/12/21 18/10/21 20/9/21
f 28/13/22 26/14/22 22/12/22 23/11/22
f 32/15/23 30/16/23 26/14/23 28/13/23
f 35/17/24 33/18/24 30/16/24 32/15/24
f 39/19/25 37/20/25 33/18/25 35/17/25
f 43/21/26 41/22/26 37/20/26 39/19/26
f 47/23/27 45/24/27 41/22/27 43/21/27
f 52/25/28 50/26/28 45/24/28 47/23/28
f 56/27/29 54/28/29 50/26/29 52/25/29
f 59/29/30 57/30/30 54/28/30 56/27/30
f 63/31/32 61/32/32 57/30/32 59/29/32
f 67/33/33 65/34/33 61/32/33 63/31/33
f 72/35/1 69/36/1 65/34/1 67/33/1
f 75/37/2 73/38/2 69/36/2 72/35/2
f 73/38/3 75/37/3 79/39/3 77/40/3
f 83/41/4 81/42/4 77/40/4 79/39/4
f 83/41/5 88/43/5 86/44/5 81/42/5
f 88/43/6 91/45/6 89/46/6 86/44/6
f 91/45/7 95/47/7 93/48/7 89/46/7
f 95/47/8 99/49/8 97/50/8 93/48/8
f 99/49/9 103/51/9 101/52/9 97/50/9
f 103/51/10 107/53/10 105/54/10 101/52/10
f 107/53/11 112/55/11 110/56/11 105/54/11
f 112/55/12 116/57/12 114/58/12 110/56/12
f 116/57/13 120/59/13 118/60/13 114/58/13
f 120/59/14 124/61/14 122/62/14 118/60/14
f 126/128/15 122/62/15 124/61/15 127/127/15
f 126/128/16 127/127/16 4/129/16 2/130/16
